<svg width="800" height="800" viewBox="0 0 24 24" fill="none" xmlns="http://www.w3.org/2000/svg"><path d="M8.5 11a1.5 1.5 0 1 0 0-3 1.5 1.5 0 0 0 0 3M17 9.5a1.5 1.5 0 1 1-3 0 1.5 1.5 0 0 1 3 0m-8.111 4.041a1 1 0 0 0-1.783.906c.082.165.187.319.297.466.183.243.46.557.848.868.79.632 2.006 1.22 3.75 1.22 1.742 0 2.96-.588 3.749-1.22.388-.31.664-.625.847-.868q.167-.221.297-.465a1.01 1.01 0 0 0-.447-1.342 1 1 0 0 0-1.335.435 2.6 2.6 0 0 1-.611.678c-.46.369-1.244.781-2.5.781-1.258 0-2.04-.412-2.501-.78a2.6 2.6 0 0 1-.611-.679" fill="#fff"/><path fill-rule="evenodd" clip-rule="evenodd" d="M12 23c6.075 0 11-4.925 11-11S18.075 1 12 1 1 5.925 1 12s4.925 11 11 11m0-2.007a8.993 8.993 0 1 1 0-17.986 8.993 8.993 0 0 1 0 17.986" fill="#fff"/></svg>