<svg width="800" height="800" viewBox="0 0 24 24" fill="none" xmlns="http://www.w3.org/2000/svg"><path d="M10 13a1 1 0 1 0 0 2h4a1 1 0 1 0 0-2zm7 1a1 1 0 1 1 2 0 1 1 0 0 1-2 0M6 13a1 1 0 1 0 0 2 1 1 0 0 0 0-2m-1-3a1 1 0 1 1 2 0 1 1 0 0 1-2 0m5-1a1 1 0 1 0 0 2 1 1 0 0 0 0-2m3 1a1 1 0 1 1 2 0 1 1 0 0 1-2 0m5-1a1 1 0 1 0 0 2 1 1 0 0 0 0-2" fill="#fff"/><path fill-rule="evenodd" clip-rule="evenodd" d="M20 5a3 3 0 0 1 3 3v8a3 3 0 0 1-3 3H4a3 3 0 0 1-3-3V8a3 3 0 0 1 3-3zm0 2a1 1 0 0 1 1 1v8a1 1 0 0 1-1 1H4a1 1 0 0 1-1-1V8a1 1 0 0 1 1-1z" fill="#fff"/></svg>