<svg width="266" height="266" xmlns="http://www.w3.org/2000/svg" style="background-color:#fff;"><g transform="translate(-208.6 -332.1)"><circle cx="341.4" cy="465.2" r="122.9" style="fill:#ffbc00"/><path d="M443.9 314.6h2.35l-1.495 1.495h-.854zm-173 3.631v1.709l-5.554 6.836h-.855l-.854-5.34q4.912-3.204 7.263-3.204m202.5 2.35q7.263 0 8.117 9.185l-4.06 28.84h1.496l3.204-2.136h.854v.64c-4.415 2.707-8.687 10.11-12.82 22.22-1.567 10.4-4.2 20.01-7.904 28.84q-4.913 13.674-4.913 25.21l-6.195 15.17q0 1.924 7.05 3.846-1.283 4.486-3.846 4.486v.854h1.495v.641q0 2.35-7.263 2.35l.855.854v2.991h-1.495q1.495 4.486 6.408 4.486v1.495h-6.408v.855q3.204 0 3.204 3.845l-8.972 2.99.854.855v.641q0 1.495-3.204 1.495v.854q4.058 0 4.059 1.495-5.767 1.924-15.17 19.01c-6.408 10.11-11.96 15.17-16.66 15.17h-1.709q-5.34-3.419-8.758-22.64c-9.114-19.51-13.67-30.97-13.67-34.39q0-13.244-8.758-28.2-2.35-6.622-3.204-16.66l-3.845-.854c-9.684 14.67-14.74 26.13-15.17 34.39q-4.059 7.261-6.408 17.52 8.758 2.35 8.758 4.486v.854q-6.835-.855-9.612-3.204c-1.994 3.845-4.628 14.53-7.904 32.04-2.563 8.117-5.768 12.18-9.612 12.18-10.82-3.56-19.87-9.399-27.13-17.52q-1.709 0-5.554-12.18-2.35 0-3.204-12.18c-5.411-11.53-9.114-24.71-11.11-39.52v-22.22h-.854l-3.845.855v-.855q0-1.495 3.845-1.495l-.855-12.82v-10.04l-6.195-32.04v-13.67q4.058-12.818 14.1-12.82h44.86v1.495q-5.34.214-7.263 2.35-4.058-2.35-7.904-2.35h-8.758l-4.913.641-.854-.64h-.641l-6.408.64-3.204-.64-2.35.64-2.563-.64c10.4 11.39 16.52 21.01 18.37 28.84h7.263v1.494h-5.554v1.71q3.204 9.825 4.699 9.825h1.709l3.845-.854.854.854.855-.854.854.854v.641q-4.272 2.565-5.767 7.05h-.64v1.494h1.494c1.994 23.78 5.696 41.8 11.11 54.04l3.204 2.136h1.71q3.202 0 13.46-24.99 6.621-11.32 9.611-19.87l-.854-2.35q6.623-8.33 13.67-8.33h1.495q4.486 0 6.408 4.698 5.98 7.05 9.612 21.15l11.96 22.22q2.35 2.35 2.35 5.34c4.414 8.402 8.402 13.96 11.96 16.66h2.563c2.99 0 6.978-10.4 11.96-31.19q1.281 0 7.049-16.66v-.854l-13.46-1.495-3.204.854h-4.059v-1.709l8.117-.64h15.81q9.185-27.555 16.88-42.72c1.709-20.79 4.058-31.19 7.049-31.19l9.612-3.846m-45.5 2.35q-1.282 2.991-5.554 2.991v-1.495zm-80.53 3.845h21.57v1.495l-4.913.641-4.699-.64-4.059 1.494-1.495-1.495h-6.408v-1.495m-112.4 2.991h2.35l1.495 1.495v.855l-4.699 4.486v3.845h-1.709v-2.35l.854-.641v-.854l-4.059-3.845q1.496-2.99 5.767-2.991m157 9.185h2.35v.64q0 1.495-2.35 1.495l-.854.855v.854l-2.35-.854v-1.495zm-11.96 8.33v.855q-.001 1.71-10.25 3.631v-1.495l4.699-2.136.854.641h.641l4.06-1.495m-139.5 7.69v.64l-1.71 1.496-.64-.641v-.854l.64-.641zm116.4 0v.64q-4.486 3.42-14.53 6.196v-1.495q1.707 0 1.708-2.35l12.82-2.991m40.59 7.476.855.854v.64l-1.495 1.71h-.855l-1.709-1.71v-.64zm29.48.854h.855v.64l-1.495 1.71h-.855v-.855zm-13.46 10.68 3.204 2.136q-.855 2.35-4.699 2.35l-1.709-2.35q0-1.068 3.204-2.136m19.22 9.826.641.855v.64l-.64.855h-1.71v-.854zm-30.33 7.69v.64l-4.06 3.204h-2.35v-.854q0-1.922 6.408-2.991m-132.4 29.69h.855v.64q-3.204 7.05-5.554 8.545h-1.71v-3.204zm104.5 35.67h.854v1.495l-6.408 3.204-.854-.855v-1.495zm-87.79 10.04h1.495l2.563 8.331h-1.71l-2.35-7.69v-.64m85.44 9.826h.641l2.563 2.35-.854.64h-.854l-1.495-2.136z" transform="scale(.9156 1.092)" style="fill:#fff"/></g></svg>