<svg xmlns="http://www.w3.org/2000/svg" width="431" height="345" style="background-color:#fff;"><defs><linearGradient id="a" gradientUnits="userSpaceOnUse" x1="319.208" y1="235.149" x2="657.653" y2="269.494"><stop style="stop-color:#e54c18" offset="0"/><stop style="stop-color:#fec350" offset="1"/></linearGradient></defs><path d="m71.148 325.001 111.096-145.256L67.868 20.032l73.515.061 91.138 125.583-136.27 179.325zm217.448.103-90.51-125.799 137.406-179.41h24.481L248.424 165.838l113.688 159.267z"/><path d="M486.41 143.827c-8.85 0-18.307.685-26.82 1.502 15.167 19.78 27.75 36.53 42.233 55.552-8.128-17.493-24.835-34.268-19.06-42.895 5.718-8.54 16.252-7.102 17.054-7.102 16.888 0 33.145 1.907 48.344 5.437l3.562-4.906c-20.27-5.218-42.288-7.588-65.312-7.588m91.47 15.963-3.282 4.688c46.826 18.336 78.5 53.36 78.5 93.5 0 59.106-68.665 107.062-153.281 107.062s-153.313-47.956-153.313-107.062c0-32.188 20.372-61.08 52.594-80.72l-9.906-15.093c-50.546 21.432-84.094 59.05-84.094 101.875 0 66.634 81.223 120.688 181.313 120.688s181.343-54.054 181.343-120.688c0-44.433-36.122-83.292-89.875-104.25" style="fill:url(#a)" transform="translate(-270.926 -65.701)"/></svg>